/* XPM */
static char *comedirecord[] = {
/* columns rows colors chars-per-pixel */
"24 24 53 1",
"  c #FFFF00000000",
". c #FFFF06EC06EC",
"X c #FFFF20542054",
"o c #FFFF26E526E5",
"O c #FFFF2ACC2ACC",
"+ c #FFFF2DFA2DFA",
"@ c #FFFF405D405D",
"# c #FFFF54C154C1",
"$ c #FFFF5E5F5E5F",
"% c #FFFF60A960A9",
"& c #FFFF7D7C7D7C",
"* c #FFFF7E8A7E8A",
"= c #F3F3E8E80000",
"- c #F4A6EA3F0ED5",
"; c #F6EAEE973F03",
": c #F7A3EFF84E51",
"> c #F83DF1205B1F",
", c #F867F1715EA1",
"< c #F993F3B07788",
"1 c #FFFF90C490C4",
"2 c #FFFFA944A944",
"3 c #FFFFB02DB02D",
"4 c #FB17F69897C1",
"5 c #FB60F7239DC4",
"6 c #FC15F87EACC9",
"7 c #FC56F8FBB23A",
"8 c #FC77F93BB4FE",
"9 c #FC99F97BB7BE",
"0 c #D5A6D5A6D5A6",
"q c #FFFFC738C738",
"w c #FFFFCB05CB05",
"e c #FFFFD107D107",
"r c #FFFFD5D1D5D1",
"t c #FFFFDBD7DBD7",
"y c #FD76FB24CA26",
"u c #FD98FB65CCF8",
"i c #FDDFFBECD2D7",
"p c #FE3CFC9FDA96",
"a c #FE5CFCDCDD35",
"s c #E9CEE9CEE9CE",
"d c #FFFFE38CE38C",
"f c #FFFFE55EE55E",
"g c #FFFFEB09EB09",
"h c #FEAAFD71E3AF",
"j c #FEBCFD93E52A",
"k c #FF03FE1CEB15",
"l c #FF29FE66EE42",
"z c #FFFFF1FDF1FD",
"x c #FFFFF63EF63E",
"c c #FF63FED3F305",
"v c #FF94FF32F71C",
"b c #FFFFFA5EFA5E",
"n c #FFFFFFFFFFFF",
/* pixels */
"nnnnnnnnnnnnnnnnnnnnnnnn",
"s00000000000000000000000",
"000000000000000000000000",
"00nnnnnnnnnnnnnnnnnnnnn0",
"00nnnxtznnnnnnnbqdnnnnn0",
"00nne.  &bnnnnn@  #xnnn0",
"00n3 1nw Oznnn& dt +enn0",
"00n 2nnnzX tf$ ennz#  t0",
"00nnnnnnnn%  otnnnnnrqn0",
"00nnnnnnnnnrgnnnnnnnnnn0",
"00nkaaaaannnnnyannnnnnn0",
"00v======annnh====8nnnn0",
"00v=jnnn,;nnn9-va4=vnnn0",
"00c=nnnnp=ulj<:nnn=5iin0",
"00n6nnnnn>====7nnn5===k0",
"00nnnnnnnnnklnnnnnnnnnn0",
"00nnnnnnnnnnnnnnnnnnnnn0",
"00nnnnnnnnnnnnnnnnnnnnn0",
"000000000000000000000000",
"s00000000000000000000000",
"nnnnnnnnnnnnnnnnnnnnnnnn",
"nnnnnnnnnnnnnnnnnnnnnnnn",
"nnnnnnnnnnnnnnnnnnnnnnnn",
"nnnnnnnnnnnnnnnnnnnnnnnn"
};
