<?xml version="1.0" encoding="UTF-8" standalone="no"?>
<!-- Created with Inkscape (http://www.inkscape.org/) -->

<svg
   xmlns:dc="http://purl.org/dc/elements/1.1/"
   xmlns:cc="http://creativecommons.org/ns#"
   xmlns:rdf="http://www.w3.org/1999/02/22-rdf-syntax-ns#"
   xmlns:svg="http://www.w3.org/2000/svg"
   xmlns="http://www.w3.org/2000/svg"
   xmlns:xlink="http://www.w3.org/1999/xlink"
   xmlns:sodipodi="http://sodipodi.sourceforge.net/DTD/sodipodi-0.dtd"
   xmlns:inkscape="http://www.inkscape.org/namespaces/inkscape"
   version="1.0"
   width="24"
   height="24"
   id="svg2666"
   inkscape:version="0.47 r22583"
   sodipodi:docname="comedirecord.svg">
  <metadata
     id="metadata50">
    <rdf:RDF>
      <cc:Work
         rdf:about="">
        <dc:format>image/svg+xml</dc:format>
        <dc:type
           rdf:resource="http://purl.org/dc/dcmitype/StillImage" />
      </cc:Work>
    </rdf:RDF>
  </metadata>
  <sodipodi:namedview
     pagecolor="#ffffff"
     bordercolor="#666666"
     borderopacity="1"
     objecttolerance="10"
     gridtolerance="10"
     guidetolerance="10"
     inkscape:pageopacity="0"
     inkscape:pageshadow="2"
     inkscape:window-width="1003"
     inkscape:window-height="664"
     id="namedview48"
     showgrid="false"
     inkscape:zoom="9.8333333"
     inkscape:cx="12"
     inkscape:cy="11.79661"
     inkscape:window-x="0"
     inkscape:window-y="26"
     inkscape:window-maximized="0"
     inkscape:current-layer="svg2666" />
  <defs
     id="defs2668">
    <inkscape:perspective
       sodipodi:type="inkscape:persp3d"
       inkscape:vp_x="0 : 12 : 1"
       inkscape:vp_y="0 : 1000 : 0"
       inkscape:vp_z="24 : 12 : 1"
       inkscape:persp3d-origin="12 : 8 : 1"
       id="perspective52" />
    <linearGradient
       id="linearGradient6718">
      <stop
         id="stop6720"
         style="stop-color:#0a0a0a;stop-opacity:1"
         offset="0" />
      <stop
         id="stop6722"
         style="stop-color:#1e1e1e;stop-opacity:1"
         offset="1" />
    </linearGradient>
    <linearGradient
       x1="24.875"
       y1="29"
       x2="24.999996"
       y2="3.0000005"
       id="linearGradient5728"
       xlink:href="#linearGradient6718"
       gradientUnits="userSpaceOnUse"
       gradientTransform="matrix(0.4634175,0,0,0.5200047,0.87798,1.6799219)" />
    <linearGradient
       id="linearGradient6712">
      <stop
         id="stop6714"
         style="stop-color:#3c3c3c;stop-opacity:1"
         offset="0" />
      <stop
         id="stop6716"
         style="stop-color:#1e1e1e;stop-opacity:1"
         offset="1" />
    </linearGradient>
    <radialGradient
       cx="12.244348"
       cy="4.8630676"
       r="20.999998"
       fx="12.244348"
       fy="4.8630676"
       id="radialGradient5726"
       xlink:href="#linearGradient6712"
       gradientUnits="userSpaceOnUse"
       gradientTransform="matrix(0.6409205,0.00928167,-0.00596746,0.5188442,-1.2664055,3.7781096)" />
    <linearGradient
       id="linearGradient6592">
      <stop
         id="stop6594"
         style="stop-color:white;stop-opacity:0.27450982"
         offset="0" />
      <stop
         id="stop6596"
         style="stop-color:white;stop-opacity:0"
         offset="1" />
    </linearGradient>
    <linearGradient
       x1="12.9375"
       y1="8.4375"
       x2="15.25"
       y2="19.8125"
       id="linearGradient5723"
       xlink:href="#linearGradient6592"
       gradientUnits="userSpaceOnUse"
       gradientTransform="matrix(0.4761905,0,0,0.5999997,0.5714284,1.200001)" />
    <linearGradient
       id="linearGradient6349">
      <stop
         id="stop6351"
         style="stop-color:#505050;stop-opacity:1"
         offset="0" />
      <stop
         id="stop6353"
         style="stop-color:#a0a0a0;stop-opacity:1"
         offset="0.29325277" />
      <stop
         id="stop6355"
         style="stop-color:#aaa;stop-opacity:1"
         offset="0.41122407" />
      <stop
         id="stop6357"
         style="stop-color:#dcdcdc;stop-opacity:1"
         offset="0.59180349" />
      <stop
         id="stop6359"
         style="stop-color:#6e6e6e;stop-opacity:1"
         offset="1" />
    </linearGradient>
    <linearGradient
       id="linearGradient6337">
      <stop
         id="stop6339"
         style="stop-color:#787878;stop-opacity:1"
         offset="0" />
      <stop
         id="stop6341"
         style="stop-color:#bebebe;stop-opacity:1"
         offset="0.2871837" />
      <stop
         id="stop6343"
         style="stop-color:#c8c8c8;stop-opacity:1"
         offset="0.42336658" />
      <stop
         id="stop6345"
         style="stop-color:#fafafa;stop-opacity:1"
         offset="0.58037585" />
      <stop
         id="stop6347"
         style="stop-color:#8c8c8c;stop-opacity:1"
         offset="1" />
    </linearGradient>
    <linearGradient
       id="linearGradient10691">
      <stop
         id="stop10693"
         style="stop-color:black;stop-opacity:1"
         offset="0" />
      <stop
         id="stop10695"
         style="stop-color:black;stop-opacity:0"
         offset="1" />
    </linearGradient>
    <linearGradient
       id="linearGradient6602">
      <stop
         id="stop6604"
         style="stop-color:white;stop-opacity:1"
         offset="0" />
      <stop
         id="stop6606"
         style="stop-color:white;stop-opacity:0"
         offset="1" />
    </linearGradient>
    <linearGradient
       id="linearGradient6544">
      <stop
         id="stop6546"
         style="stop-color:#f0f0f0;stop-opacity:1"
         offset="0" />
      <stop
         id="stop6548"
         style="stop-color:#d2d2d2;stop-opacity:1"
         offset="1" />
    </linearGradient>
    <radialGradient
       cx="0.99999994"
       cy="5.5642838"
       r="22.999998"
       fx="0.99999994"
       fy="5.5642838"
       id="radialGradient5540"
       xlink:href="#linearGradient6602"
       gradientUnits="userSpaceOnUse"
       gradientTransform="matrix(0.4666683,0,0,0.3373329,0.7999606,4.6026778)" />
    <linearGradient
       x1="20.147005"
       y1="-0.00049710274"
       x2="20.103531"
       y2="31.98299"
       id="linearGradient5543"
       xlink:href="#linearGradient6544"
       gradientUnits="userSpaceOnUse"
       gradientTransform="matrix(0.4901603,0,0,0.5489643,0.236014,1.2167076)" />
    <linearGradient
       x1="320.04437"
       y1="85.486282"
       x2="320.04437"
       y2="95.485977"
       id="linearGradient5547"
       xlink:href="#linearGradient6337"
       gradientUnits="userSpaceOnUse"
       gradientTransform="matrix(0.5274678,0,0,0.5000152,-156.8131,-24.74444)" />
    <linearGradient
       x1="22.124004"
       y1="34.485851"
       x2="22.124004"
       y2="44.486988"
       id="linearGradient5549"
       xlink:href="#linearGradient6349"
       gradientUnits="userSpaceOnUse"
       gradientTransform="matrix(0.5293689,0,0,0.4999433,-0.7117599,0.7590293)" />
    <radialGradient
       cx="6.702713"
       cy="73.615715"
       r="7.228416"
       fx="6.702713"
       fy="73.615715"
       id="radialGradient5552"
       xlink:href="#linearGradient10691"
       gradientUnits="userSpaceOnUse"
       gradientTransform="matrix(1.1067433,0,0,0.2075143,4.5818183,7.2236846)" />
  </defs>
  <path
     d="M 20,22.5 C 20,23.328428 16.418278,24 12,24 7.5817217,24 4,23.328428 4,22.5 4,21.671573 7.5817217,21 12,21 c 4.418278,0 8,0.671573 8,1.5 l 0,0 z"
     id="path2589"
     style="opacity:0.35;fill:url(#radialGradient5552);fill-opacity:1;fill-rule:nonzero;stroke:none;stroke-width:0.80000001;marker:none;visibility:visible;display:inline;overflow:visible" />
  <path
     d="m 9.5,16.506818 c 0,0 0,3.500103 0,3.500103 -0.011657,0.901015 -1.4135984,1.500047 -1.4135984,1.500047 -0.3963173,0.04422 -0.5934015,0.223008 -0.5934015,0.500017 0,0.27701 0.2668072,0.500016 0.5934015,0.500016 l 7.8133794,0 c 0.326595,0 0.593402,-0.223006 0.593402,-0.500016 0,-0.277009 -0.197086,-0.455801 -0.593402,-0.500017 0,0 -1.388124,-0.599032 -1.399781,-1.500047 0,0 0,-3.500103 0,-3.500103 l -5,0 z"
     id="path4675"
     style="fill:url(#linearGradient5547);fill-opacity:1;stroke:url(#linearGradient5549);stroke-width:1;stroke-linecap:round;stroke-linejoin:round;stroke-miterlimit:4;stroke-opacity:1;stroke-dasharray:none;stroke-dashoffset:0.50000001;display:inline;enable-background:new" />
  <rect
     width="23.000053"
     height="17.000053"
     x="0.49997333"
     y="1.4999733"
     id="rect2722"
     style="fill:url(#linearGradient5543);fill-opacity:1;stroke:#b4b4b4;stroke-width:0.99994665;stroke-linecap:round;stroke-linejoin:round;stroke-miterlimit:4;stroke-opacity:1;stroke-dasharray:none;stroke-dashoffset:0.50000001" />
  <rect
     width="21.000038"
     height="15.000038"
     rx="0"
     ry="0"
     x="1.4999807"
     y="2.4999812"
     id="rect4642"
     style="fill:none;stroke:url(#radialGradient5540);stroke-width:0.99996144;stroke-linecap:round;stroke-linejoin:round;stroke-miterlimit:4;stroke-opacity:1;stroke-dasharray:none;stroke-dashoffset:0.50000001;display:inline;enable-background:new" />
  <rect
     width="19.000109"
     height="13.000109"
     x="2.4999456"
     y="3.4999456"
     id="rect2716"
     style="fill:url(#radialGradient5726);fill-opacity:1;fill-rule:evenodd;stroke:url(#linearGradient5728);stroke-width:0.99989104;stroke-linecap:butt;stroke-linejoin:miter;stroke-miterlimit:4;stroke-opacity:1;stroke-dasharray:none;display:inline;enable-background:new" />
  <path
     d="M 2,3 22,3 22,7.8000027 2,12 2,3 z"
     id="rect6588"
     style="fill:url(#linearGradient5723);fill-opacity:1;stroke:none" />
  <path
     style="fill:none;stroke:#ff0000;stroke-width:1px;stroke-linecap:butt;stroke-linejoin:miter;stroke-opacity:1"
     d="M 3.1525424,6.9152542 C 3.4237288,6.3728814 3.0508475,7.0169492 3.4576271,6.6101695 3.511225,6.5565716 3.5057241,6.4603776 3.559322,6.4067797 3.6457461,6.3203556 3.7689674,6.2797414 3.8644068,6.2033898 3.9392756,6.1434948 4,6.0677966 4.0677966,6 4.1694915,5.9322034 4.2751037,5.8699434 4.3728814,5.7966102 4.4867797,5.7111864 4.5640678,5.5769492 4.6779661,5.4915254 c 0.060639,-0.045479 0.1403213,-0.059649 0.2033898,-0.1016949 0.039888,-0.026592 0.058817,-0.080256 0.1016949,-0.1016949 0.03032,-0.01516 0.071375,0.01516 0.101695,0 0.042878,-0.021439 0.063343,-0.072931 0.1016949,-0.1016949 0.9125072,-0.6843804 0.022217,-0.075202 0.4067796,-0.2033899 0.071909,-0.02397 0.1298541,-0.083311 0.2033899,-0.1016949 0.056056,-0.014014 0.5515934,-0.011715 0.6101695,0 0.1051141,0.021023 0.2092058,0.053756 0.3050847,0.1016949 0.042878,0.021439 0.058817,0.080256 0.1016949,0.101695 0.095879,0.047939 0.2065562,0.059468 0.3050848,0.1016949 1.2395594,0.5312397 0.049795,-7.016e-4 0.5084745,0.3050847 0.063069,0.042046 0.1383928,0.062697 0.2033899,0.1016949 0.1048045,0.062883 0.2002802,0.1405071 0.3050847,0.2033899 0.064997,0.038998 0.1403213,0.059649 0.2033899,0.1016949 0.119664,0.079776 0.19003,0.2187937 0.3050847,0.3050847 0.060639,0.045479 0.1497919,0.048097 0.2033898,0.1016949 0.053598,0.053598 0.059649,0.1403214 0.1016949,0.2033899 0.026592,0.039888 0.067797,0.067797 0.101695,0.1016949 0.033898,0.033898 0.058817,0.080256 0.1016949,0.1016949 0.03032,0.01516 0.077725,-0.02397 0.1016949,0 0.02397,0.02397 -0.028205,0.082892 0,0.1016949 0.089192,0.059462 0.2092058,0.053756 0.3050847,0.1016949 0.064777,0.032388 0.4285661,0.4285661 0.508475,0.5084746 0.0339,0.033898 0.05882,0.080256 0.101695,0.1016949 0.140273,0.070137 0.09096,-0.1231581 0.203389,0.1016949 0.01516,0.03032 -0.02397,0.077725 0,0.101695 0.02397,0.02397 0.06954,-0.01072 0.101695,0 0.736619,0.2455395 -0.160333,-0.029319 0.305085,0.2033898 0.03032,0.01516 0.07772,-0.02397 0.101695,0 0.02397,0.02397 -0.02397,0.077725 0,0.1016949 0.02397,0.02397 0.07772,-0.02397 0.101695,0 0.02397,0.02397 -0.02397,0.077725 0,0.1016949 0.08184,0.081838 0.173604,-0.091766 0.20339,-0.1016949 0.06432,-0.021439 0.135593,0 0.20339,0 0.135593,0 0.271186,0 0.406779,0 0.0339,0 0.07773,0.02397 0.101695,0 0.02397,-0.02397 -0.02397,-0.077725 0,-0.1016949 0.01741,-0.017406 0.353441,0.013335 0.40678,0 0.103995,-0.025999 0.209206,-0.053755 0.305084,-0.1016949 0.04288,-0.021439 0.05882,-0.080256 0.101695,-0.1016949 0.03032,-0.01516 0.07349,0.018803 0.101695,0 0.07978,-0.053184 0.117633,-0.1605115 0.20339,-0.2033899 0.06064,-0.03032 0.142751,0.03032 0.20339,0 0.03032,-0.01516 -0.02397,-0.077725 0,-0.1016949 0.02397,-0.02397 0.07773,0.02397 0.101695,0 0.02397,-0.02397 -0.0282,-0.082892 0,-0.1016949 0.08919,-0.059462 0.209206,-0.053756 0.305085,-0.1016949 0.04288,-0.021439 0.0678,-0.067797 0.101695,-0.1016949 0.0339,-0.033898 0.0751,-0.061807 0.101694,-0.1016949 0.04205,-0.063069 0.0481,-0.149792 0.101695,-0.2033899 0.02397,-0.02397 0.07138,0.01516 0.101695,0 0.04288,-0.021439 0.0678,-0.067797 0.101695,-0.1016949 0.0678,-0.067797 0.145863,-0.1266867 0.20339,-0.2033898 0.04548,-0.060639 0.05622,-0.1427507 0.101695,-0.2033899 0.03266,-0.043553 0.375951,-0.3451219 0.40678,-0.4067796 0.01516,-0.03032 -0.01516,-0.071375 0,-0.1016949 0.06102,-0.1220339 0.244067,-0.1830509 0.305084,-0.3050848 0.01516,-0.030319 -0.02397,-0.077725 0,-0.1016949 0.210411,-0.2104104 -0.0082,0.321535 0.20339,-0.1016949 0.07014,-0.1402736 -0.123158,-0.090963 0.101695,-0.2033898 0.03032,-0.01516 0.07772,0.02397 0.101695,0 0.02397,-0.02397 -0.02397,-0.077725 0,-0.101695 0.02397,-0.02397 0.07773,0.02397 0.101695,0 0.02397,-0.02397 0,-0.067797 0,-0.1016949 0.0678,-0.033898 0.131481,-0.077725 0.20339,-0.1016949 0.03216,-0.01072 0.0678,0 0.101695,0 0.292046,0 0.542003,-0.034083 0.813559,0.1016949 0.04288,0.021439 0.05882,0.080256 0.101695,0.1016949 0.07199,0.3100739 0.281769,0.03919 0.40678,0.101695 0.04288,0.021439 0.05882,0.080256 0.101695,0.1016949 0.03032,0.01516 0.07772,-0.02397 0.101694,0 0.02397,0.02397 -0.02397,0.077725 0,0.1016949 0.02397,0.02397 0.07138,-0.01516 0.101695,0 0.04288,0.021439 0.05882,0.080256 0.101695,0.1016949 0.03032,0.01516 0.07138,-0.01516 0.101695,0 0.04288,0.021439 0.0678,0.067797 0.101695,0.1016949 0.0678,0.067797 0.123614,0.1502058 0.20339,0.2033899 0.0282,0.018803 0.07773,-0.02397 0.101695,0 0.21041,0.2104104 -0.321535,-0.00823 0.101695,0.2033898 0.140273,0.070137 0.09096,-0.1231582 0.20339,0.1016949 0.01516,0.03032 -0.02397,0.077725 0,0.1016949 0.02397,0.02397 0.07137,-0.01516 0.101694,0 0.122034,0.061017 0.183051,0.2440678 0.305085,0.3050848 0.03032,0.01516 0.07772,-0.02397 0.101695,0 0.02397,0.02397 -0.02397,0.077725 0,0.1016949 0.02397,0.02397 0.07138,-0.01516 0.101695,0 0.04288,0.021439 0.05882,0.080256 0.101695,0.1016949 0.03032,0.01516 0.07773,-0.02397 0.101695,0 0.02397,0.02397 -0.03032,0.086535 0,0.1016949 0.06064,0.03032 0.139072,-0.021439 0.20339,0 0.317422,0.1058075 -0.0339,0.067797 0.101695,0.2033898 0.04794,0.04794 0.14275,-0.03032 0.203389,0 0.465418,0.2327089 -0.431533,-0.04215 0.305085,0.2033899 0.06432,0.021439 0.155451,-0.04794 0.20339,0 0.02397,0.02397 -0.02397,0.077725 0,0.1016949 0.04794,0.047939 0.20339,-0.067797 0.20339,0 0,0.033898 -0.135593,0 -0.101695,0 0.237288,0 0.474576,0 0.711864,0"
     id="path2887" />
  <path
     style="fill:none;stroke:#f3e800;stroke-width:1px;stroke-linecap:butt;stroke-linejoin:miter;stroke-opacity:1"
     d="m 3.0508475,13.322034 c 0,-0.169492 0,-0.338983 0,-0.508475 0,-0.0339 0.01516,-0.07137 0,-0.101695 -0.058209,-0.116417 -0.1493935,-0.06029 -0.101695,-0.203389 0.02397,-0.07191 0.077725,-0.131481 0.101695,-0.20339 0.022124,-0.06637 0,-0.488582 0,-0.61017 0,-0.135593 0,-0.271186 0,-0.406779 0,-0.0339 0,-0.135594 0,-0.101695 0,0.0678 0,0.271186 0,0.20339 0,-0.101695 -0.032159,-0.208609 0,-0.305085 0.010719,-0.03216 0.1016949,-0.0339 0.1016949,0 0,0.0339 -0.1016949,0.0339 -0.1016949,0 0,-0.16864 0.1426137,-0.07131 0.2033898,-0.101695 0.2513293,-0.125665 -0.035103,-0.101695 0.2033898,-0.101695 0.779661,0 1.5593221,0 2.3389831,0 0.5423729,0 1.0847457,0 1.6271186,0 0.058596,0 0.4714093,-0.01853 0.5084746,0 0.093083,0.04654 0.1786173,0.230767 0.2033898,0.305085 0.01072,0.03216 -0.01072,0.06954 0,0.101695 0.02397,0.07191 0.067797,0.135593 0.1016949,0.203389 0.033898,0.0678 0.048097,0.149792 0.101695,0.20339 0.02397,0.02397 0.077725,-0.02397 0.1016949,0 0.02397,0.02397 -0.01516,0.07138 0,0.101695 0.2314721,0.231472 0.026878,-0.02106 0.1016949,0.20339 0.2455395,0.736619 -0.029319,-0.160333 0.2033898,0.305085 0.01516,0.03032 -0.01072,0.06954 0,0.101695 0.02397,0.07191 0.077725,0.13148 0.1016949,0.203389 0.021439,0.06432 -0.03032,0.142751 0,0.20339 0.021439,0.04288 0.080256,0.05882 0.1016949,0.101695 0.01516,0.03032 -0.02397,0.07773 0,0.101695 0.02397,0.02397 0.077725,-0.02397 0.101695,0 0.02397,0.02397 -0.01072,0.06954 0,0.101695 0.029927,0.08978 0.251437,0.529698 0.3050847,0.61017 0.015886,0.02383 0.1313809,0.173703 0.2033898,0.101694 0.067797,-0.0678 -0.1016949,-0.169491 0.1016949,-0.101694 0.071909,0.02397 0.1314807,0.07773 0.2033899,0.101694 0.1080622,0.03602 0.2987172,-0.03602 0.4067792,0 0.07191,0.02397 0.129855,0.08331 0.20339,0.101695 0.06577,0.01644 0.142751,-0.03032 0.20339,0 0.03032,0.01516 -0.02397,0.07773 0,0.101695 0.01256,0.01256 0.343008,0 0.40678,0 0.114197,0 0.639162,0.02423 0.711864,0 0.07191,-0.02397 0.131481,-0.07773 0.20339,-0.101695 0.05738,-0.01912 0.23826,0 0.305085,0 0.237288,0 0.474576,0 0.711864,0 0.124137,0 0.234507,0.03946 0.305085,-0.101695 0.03032,-0.06064 -0.03032,-0.14275 0,-0.203389 0.02144,-0.04288 0.08653,-0.05622 0.101695,-0.101695 0.02144,-0.06432 -0.01644,-0.137618 0,-0.20339 0.01838,-0.07354 0.08331,-0.129854 0.101695,-0.20339 0.01644,-0.06577 -0.02144,-0.139072 0,-0.20339 0.01516,-0.04548 0.08026,-0.05882 0.101695,-0.101695 0.03,-0.06 -0.02332,-0.235135 0,-0.305084 0.02397,-0.07191 0.07772,-0.131481 0.101695,-0.20339 0.03602,-0.108062 -0.03602,-0.298718 0,-0.40678 0.02397,-0.07191 0.07773,-0.131481 0.101694,-0.20339 0.01319,-0.03957 -0.01578,-0.289303 0,-0.305084 0.02397,-0.02397 0.07773,0.02397 0.101695,0 0.05085,-0.05085 -0.05085,-0.254238 0,-0.305085 0.02397,-0.02397 0.07773,0.02397 0.101695,0 0.04794,-0.04794 -0.04794,-0.155451 0,-0.20339 0.02397,-0.02397 0.101695,-0.0339 0.101695,0 0,0.04794 -0.101695,0.149634 -0.101695,0.101695 0,-0.0758 0.0339,-0.169492 0.101695,-0.20339 0.04288,-0.02144 0.05882,0.08026 0.101695,0.101695 0.04343,0.02172 0.468273,0 0.508475,0 0.0339,0 0.07772,-0.02397 0.101695,0 0.02397,0.02397 -0.03032,0.08653 0,0.101695 0.08325,0.04162 0.400821,-0.03588 0.508474,0 0.07191,0.02397 0.131481,0.07773 0.20339,0.101695 0.06637,0.02212 0.488582,0 0.61017,0 0.0339,0 0.07137,-0.01516 0.101694,0 0.04288,0.02144 0.05882,0.08026 0.101695,0.101695 0.03095,0.01547 0.259286,0 0.305085,0 0.0339,0 0.07772,0.02397 0.101695,0 0.02397,-0.02397 -0.02397,-0.07773 0,-0.101695 0.02397,-0.02397 0.0678,0 0.101695,0 0.0458,0 0.274135,-0.01548 0.305085,0 0.135592,0.0678 0.240565,0.379435 0.305084,0.508474 0.0339,0.0678 0.0481,0.149792 0.101695,0.20339 0.02397,0.02397 0.07773,-0.02397 0.101695,0 0.02397,0.02397 -0.01516,0.07138 0,0.101695 0.33728,0.33728 -0.04794,-0.09588 0.101695,0.20339 0.02144,0.04288 0.08026,0.05882 0.101695,0.101695 0.01516,0.03032 -0.02397,0.07772 0,0.101695 0.02397,0.02397 0.07773,-0.02397 0.101695,0 0.02397,0.02397 -0.01072,0.06954 0,0.101695 0.24554,0.736618 -0.02932,-0.160333 0.20339,0.305084 0.02016,0.04032 -0.02079,0.284295 0,0.305085 0.02397,0.02397 0.07773,-0.02397 0.101695,0 0.04794,0.04794 -0.04794,0.155451 0,0.20339 0.02397,0.02397 0.07773,-0.02397 0.101695,0 0.04794,0.04794 -0.04794,0.15545 0,0.20339 0.02397,0.02397 0.07772,-0.02397 0.101695,0 0.04794,0.04794 -0.03032,0.142751 0,0.20339 0.02144,0.04288 0.08026,0.05882 0.101694,0.101695 0.01516,0.03032 -0.02397,0.07773 0,0.101694 0.02397,0.02397 0.07773,-0.02397 0.101695,0 0.02397,0.02397 0.0339,0.101695 0,0.101695 -0.135593,0 0.101695,-0.237288 0.101695,-0.101695 0,0.04794 -0.149634,0.101695 -0.101695,0.101695 0.0758,0 0.131481,-0.07772 0.20339,-0.101695 0.05504,-0.01835 0.372135,0 0.40678,0 0.0339,0 0.07137,-0.01516 0.101695,0 0.04288,0.02144 0.05882,0.08026 0.101695,0.101695 0.03032,0.01516 0.0678,0 0.101695,0 0.0339,0 0.07773,0.02397 0.101695,0 0.02397,-0.02397 -0.02397,-0.07772 0,-0.101695 0.0041,-0.0041 0.369433,0 0.406779,0 0.20339,0 0.40678,0 0.61017,0 0.124703,0 0.242582,0 0.20339,0 -0.0678,0 -0.271187,0 -0.20339,0 0.101695,0 0.20339,0 0.305084,0"
     id="path3661" />
</svg>
